<?xml version="1.0" encoding="UTF-8" standalone="no"?>
<!DOCTYPE svg PUBLIC "-//W3C//DTD SVG 1.1//EN" "http://www.w3.org/Graphics/SVG/1.1/DTD/svg11.dtd">
<svg width="100%" height="100%" viewBox="0 0 3840 1038" version="1.1" xmlns="http://www.w3.org/2000/svg" xmlns:xlink="http://www.w3.org/1999/xlink" xml:space="preserve" xmlns:serif="http://www.serif.com/" style="fill-rule:evenodd;clip-rule:evenodd;stroke-linejoin:round;stroke-miterlimit:2;">
    <g transform="matrix(1,0,0,1,338,215)">
        <path d="M1515.73,826.173C1520.94,826.173 1525.05,821.472 1529.54,819.201C1535.63,816.127 1542.97,813.3 1547.56,808.673C1549.98,806.221 1568.44,788.851 1569.35,788.842C1569.56,788.84 1579.71,771.707 1580.18,771.228C1580.37,771.043 1589.52,764.119 1592.5,762.612C1595.19,761.257 1620.78,734.803 1645.27,709.045C1668.63,684.466 1690.99,660.522 1691.48,659.628C1694.33,654.344 1764.49,551.095 1765.32,548.569C1766.26,545.727 1807.08,482.965 1824.18,408.696C1836.4,355.622 1839.6,309.117 1840,281.132C1840.08,275.738 2021.35,345.389 2141.02,354.445C2409.34,374.748 2589.36,348.814 2641.37,346.932C2665.02,346.077 2729.52,363.089 2758.34,372.902C2759.37,373.255 2777.1,379.75 2863.66,402.243C2986.68,434.208 3116.16,452.589 3156.28,457.243C3199.37,462.244 3417.05,471.381 3458.68,469.612C3487.55,468.385 3509.99,466.295 3510.01,466.685C3510.91,486.815 3511.77,598.856 3511.77,619.067C3511.77,632.848 3512.48,672.281 3512.48,686.067C3512.48,719.009 3509.72,784.759 3509.72,817.728C3509.72,834.972 3501.83,822.529 3248.28,824.875C3245.33,824.902 2217.39,826.16 2214.39,826.241C2208.03,826.413 2209.23,826.107 2208.27,826.107C2200.2,826.107 2191.75,824.891 2183.72,825.493C2166.09,826.817 2089.87,825.156 2080.89,825.79C2066.59,826.799 1967.97,825.5 1953.99,825.5C1910.97,825.5 1802.43,826.039 1789.82,826.039C1759.65,826.039 1624.83,826.052 1612.66,826.022C1601.08,825.994 1572.02,825.792 1567.91,825.773C1564.22,825.755 1529.63,826.016 1523.09,826.661C1522.42,826.727 1516.59,824.475 1516.2,824.865C1516.03,825.03 1517.01,826.039 1517.01,826.49" style="fill:rgb(63,82,82);"/>
    </g>
    <path d="M2140.44,466.383C2145.15,466.383 2202.97,478.467 2217.18,480.836C2228.05,482.647 2239.45,480.403 2250.46,481.5C2263.65,482.816 2673.19,517.165 3026.89,561.657C3290.07,594.761 3524.26,640.344 3531.02,645.553C3532.57,646.747 3840.95,682.568 3839.04,684.465C3822.95,700.406 3496.32,672.49 3475.15,674.155C3458.08,675.497 3441.01,674.293 3424.02,672.24C3404.25,669.85 3292.72,644.422 3272.85,642.948C3253.89,641.54 3325.71,667.671 3306.8,665.574C3278.43,662.428 3249.93,664.666 3221.58,662.29C3199.89,660.472 2962.03,619.396 2940.41,617.234C2880.94,611.287 3005.6,655.621 2944.6,660.705C2914.31,663.23 2883.32,659.505 2852.94,660.705C2825.62,661.785 2801.94,685.111 2779.46,686.879C2755.65,688.752 2578.19,637.676 2554.46,636.529C2532.3,635.458 2624.36,677.089 2602.31,674.637C2522.94,665.813 2390.13,620.825 2310.26,620.825C2290.75,620.825 2362.04,668.066 2342.68,668.066C2339.08,668.066 2325.67,665.761 2323.34,668.066C2322.95,668.448 2323.92,668.987 2324.24,669.421C2326.41,672.31 2324.79,675.862 2321.96,677.738C2305.8,688.445 2256.87,679.527 2256.87,679.9C2256.87,680.2 2256.98,680.767 2256.41,680.804C2247.25,681.403 2237.72,679.621 2228.62,678.845C2215.92,677.762 2170.76,709.089 2165.07,718.299C2157.5,730.553 2197.94,708.087 2192.87,721.596C2186.46,738.651 2139.22,792.163 2129.85,807.761C2121.92,820.971 2173.94,782.492 2169.14,796.383C2165.92,805.687 2107.69,869.716 2102.79,878.553C2093.82,894.721 2164.51,842.862 2153.41,857.651C2145.11,868.714 2082.89,931.922 2073.39,941.393C2061.7,953.046 2137.63,927.396 2123.96,937.597C2114.53,944.636 1988.73,1003.32 1982.69,1012.7C1976.52,1022.27 1956.56,1025.54 1949.04,1029.27C1942.15,1032.67 1846.87,1078.72 1837.92,1075.72C1831.23,1073.49 1891.45,1012.75 1895.11,1005.42C1914.22,967.105 1969.94,950.623 1990.65,912.413C2015.11,867.291 2070.04,829.973 2089.1,781.843C2095.49,765.704 2121.72,703.538 2128.44,687.301C2138.92,661.99 2123.63,647.576 2131.5,621.26C2133.99,612.922 2117.25,613.465 2120.42,605.309C2123.29,597.925 2126.49,583.335 2129.01,575.422C2132.04,565.88 2120.24,559.959 2123.27,550.85C2125.65,543.694 2114.66,513.239 2115.16,507.613C2116.22,495.537 2116.64,480.106 2117.71,467.859C2117.85,466.357 2119.07,467.162 2119.07,465.588C2119.07,458.428 2135,466.383 2140.44,466.383Z" style="fill:rgb(69,90,90);"/>
</svg>
