<?xml version="1.0" encoding="UTF-8" standalone="no"?>
<!DOCTYPE svg PUBLIC "-//W3C//DTD SVG 1.1//EN" "http://www.w3.org/Graphics/SVG/1.1/DTD/svg11.dtd">
<svg width="100%" height="100%" viewBox="0 0 3840 1038" version="1.1" xmlns="http://www.w3.org/2000/svg" xmlns:xlink="http://www.w3.org/1999/xlink" xml:space="preserve" xmlns:serif="http://www.serif.com/" style="fill-rule:evenodd;clip-rule:evenodd;stroke-linejoin:round;stroke-miterlimit:2;">
    <path d="M-1.581,596.184C-5.005,564.347 365.06,611.378 378.335,607.693C406.291,599.932 478.181,595.246 485.698,587.681C500.89,572.391 516.788,563.183 537.446,553.603C559.854,543.213 579.747,535.078 604.008,530.956C614.151,529.232 655.164,481.853 656.409,470.204C658.277,452.712 705.955,416.614 708.4,416.614C753.034,416.614 786.557,416.871 829.972,424.219C839.736,425.871 859.498,443.986 861.319,445.807C862.037,446.525 874.72,449.12 877.5,450.51C895.197,459.359 945.437,471.422 950.116,473.761C963.053,480.23 1071.75,488.544 1077.5,492.856C1093.28,504.688 1119.43,510.169 1138.65,514.579C1163.33,520.24 1265.32,674.485 1280.22,685.659C1291.31,693.979 1325.08,718.304 1327.93,719.407C1387.57,742.529 1610.57,730.89 1682.39,765.988C1818.88,832.692 2073.77,806.847 2115.35,763.777C2115.73,763.387 2289.23,845.055 2314.35,810.931C2338.8,777.711 2387.55,729.215 2394.72,725.313C2408.56,717.784 2454.47,696.732 2462,695.547C2482.64,692.298 2501.82,709.701 2524.52,705.892C2540.03,703.291 2556.57,700.863 2572.49,700.863C2574.11,700.863 2614.57,691.353 2629.07,689.902C2651.64,687.643 2673.8,688.281 2696.22,682.671C2708.81,679.521 2823.55,675.277 2838.7,672.735C2864.88,668.342 2891.01,664.013 2917.56,660.801C2935.72,658.604 2958.38,659.731 2976.05,664.149C2988.01,667.138 3065.31,708.326 3094.97,717.761C3112.68,723.394 3215.29,588.748 3234.5,585.484C3260.24,581.11 3298.32,540.523 3326.41,519.651C3342.24,507.891 3418.96,472.622 3437.08,463.443C3469.34,447.101 3570.69,366.981 3631.26,373.021C3693.22,379.201 3827.86,419.788 3842.69,417.301C3846.53,416.657 3840.46,782.589 3840.46,786.611L3840.46,829.748C3840.46,835.327 3839.93,841.478 3840.46,847.094C3842.68,870.828 3841.16,894.725 3843.18,918.463C3847.74,972.064 3857.38,1026.02 3863.95,1079.28C3866.52,1100.03 3871.86,1119.61 3871.86,1140.55C3871.86,1143.27 3873.78,1157.12 3871.86,1159.02C3870.94,1159.93 3869.32,1158.57 3868.04,1158.35C3852.77,1155.8 3835.81,1153.68 3820.3,1153.68C3801.85,1153.68 3782.89,1150.04 3764.4,1148.87C3723.47,1146.28 3680.05,1146.71 3639.12,1148.87C3590.01,1151.46 3542.35,1156.21 3493.56,1163.84C3473.73,1166.94 3453.86,1172.89 3433.91,1175.36C3422.9,1176.73 3411.76,1175.92 3400.75,1177.31C3332.04,1185.99 3263.88,1198.39 3195.09,1206.69C3113.5,1216.55 3031.39,1214.71 2949.57,1219.25C2905.66,1221.69 2862.44,1228.29 2818.94,1234.33C2778.17,1240 2736.8,1241.57 2696.24,1248.72C2668.96,1253.54 2642.53,1261.59 2615.51,1267.5C2558.13,1280.05 2499.69,1290.44 2441.14,1295.31C2376.91,1300.65 2311.58,1303.27 2247.18,1305.21C2194.13,1306.81 2141.3,1314.94 2088.26,1316.55C2002.88,1319.13 1917.49,1321.54 1832.08,1324.14C1800.37,1325.11 1768.76,1328.96 1737.04,1329.95C1677.02,1331.85 1615.9,1331.96 1555.87,1329.95C1431.06,1325.79 1306.7,1310.65 1182.85,1295.16C1135.86,1289.28 1087.88,1288.71 1041.07,1281.71C970.451,1271.14 899.564,1261.6 828.965,1250.84C772.807,1242.29 717.04,1228.78 661.155,1218.4C597.816,1206.64 535.152,1191.78 472.231,1178.28C443.946,1172.2 414.72,1172.71 386.125,1167.94C333.303,1159.14 280.069,1143.22 229.1,1127.12C207.878,1120.42 185.843,1117.11 164.502,1111C150.203,1106.91 134.513,1105.89 119.861,1103.18C101.106,1099.71 82.752,1093.84 64.226,1090.93C44.207,1087.79 18.479,1095.72 4.451,1081.69C3.703,1080.94 0.528,1083.69 -0.565,1082.59C-5.994,1077.16 -3.427,1061.69 -4.182,1054.67C-6.677,1031.47 -1.702,1003.52 -2.514,980.209C-5.078,906.614 -3.27,842.519 -14.898,768.433C-21.932,723.61 3.298,641.547 -1.581,596.184Z" style="fill:rgb(80,116,116);"/>
    <g transform="matrix(-1,0,0,1,1839.58,-121.64)">
        <path d="M1267.88,460.248C1267.38,461.741 1268.15,459.314 1268.24,458.769C1268.43,457.56 1269.04,456.537 1269.47,455.681C1269.56,455.506 1270.02,446.52 1270.19,446.683C1272.35,448.851 1271.48,461.823 1272.49,464.837C1273.49,467.839 1273.52,471.706 1274.02,474.907C1274.73,479.429 1276.13,483.73 1277.45,487.651C1278.01,489.321 1277.52,492.072 1278.88,493.439C1280.34,494.892 1280.52,497.656 1282.16,499.838C1283.93,502.193 1285.42,505.15 1286.52,507.349C1287.68,509.672 1289.97,511.96 1290.61,516.607C1290.78,517.854 1285.47,512.319 1285.08,511.732C1282.79,508.307 1280.53,504.444 1277.36,501.271C1276.9,500.811 1275.87,498.319 1275.12,498.326C1275.08,498.326 1275.23,499.262 1275.23,499.351C1275.23,499.363 1275.92,502.834 1275.74,502.836C1275.55,502.838 1274.92,502.98 1274.43,503.002C1274.5,503.474 1274.56,503.98 1274.61,504.026C1275.41,504.83 1275.32,507.091 1275.32,508.53C1275.32,512.859 1274.96,517.153 1275.68,521.441C1276.18,524.435 1299.76,551.728 1300.26,554.712C1300.86,558.306 1278.8,537.686 1279.68,541.176C1280.15,543.029 1279.38,545.217 1279.99,547.035C1280.11,547.393 1279.84,548.93 1280.09,549.184C1280.51,549.606 1280.6,551.002 1280.95,551.658C1281.86,553.328 1282.57,555.355 1283.26,557.16C1283.77,558.501 1284.91,559.656 1285.56,560.958C1286.89,563.599 1288.29,566.71 1289.84,569.029C1293.97,575.203 1299.52,580.613 1304,586.577C1304.95,587.839 1309.85,591.067 1308.79,593.194C1308.61,593.566 1308.38,598.212 1307.58,597.406C1304.35,594.179 1297.74,588.693 1293.74,584.697C1292.55,583.505 1291.11,582.41 1290.36,580.903C1289.54,579.277 1288.61,577.417 1286.86,576.542C1286.8,576.509 1285.41,575.735 1285.36,575.789C1285.03,576.117 1285,578.145 1285.26,578.66C1285.38,578.92 1285.06,579.693 1285.26,579.89C1286.6,581.233 1288.08,585.138 1288.84,587.082C1290.69,591.859 1292.52,597.19 1295.53,601.198C1297.41,603.695 1299.17,605.801 1301.26,608.154C1304.39,611.661 1308.42,614.2 1310.93,619.957C1311.33,620.865 1303.31,617.246 1302.87,616.359C1302.52,615.664 1301.2,615.377 1300.83,614.633C1299.53,612.034 1296.08,610.578 1293.64,609.256C1293.27,609.053 1281.08,591.692 1280.94,591.824C1280.38,592.392 1287.4,611.795 1287.4,612.695C1287.4,618.399 1292.72,622.72 1294.27,627.974C1294.92,630.189 1296.4,632.156 1297.09,634.234C1297.95,636.787 1299.19,639.998 1301.09,641.905C1301.64,642.461 1301.73,643.781 1302.16,644.478C1303.78,647.107 1304.53,650.072 1306.21,652.686C1310.71,659.698 1314.62,666.902 1318.6,674.247C1320.46,677.665 1326.27,685.552 1327.51,689.258C1327.85,690.275 1323.65,687.342 1323.41,688.318C1323.05,689.773 1328.9,696.284 1327.83,697.368C1327.19,698.011 1319.91,693.592 1319.06,693.379C1315.27,692.431 1311.96,690.336 1308.22,689.089C1306.6,688.55 1305.4,687.754 1303.87,687.165C1303.72,687.107 1302.9,686.511 1302.75,686.657C1302.25,687.162 1303.06,688.958 1303.06,689.426C1303.06,691.163 1305.44,693.748 1306.65,694.958C1307.14,695.449 1307.22,696.45 1307.57,696.801C1307.83,697.061 1313.28,703.591 1313.05,703.826C1312.83,704.046 1306.22,699.757 1306.05,699.671C1304.38,698.836 1302.83,698.204 1301.38,697.233C1300.75,696.813 1299.72,696.693 1299.24,696.218C1299.03,696.001 1298.02,696.32 1298.33,696.32C1298.71,696.32 1299.08,697.788 1299.25,697.96C1301.13,699.834 1310.7,709.101 1312.97,711.373C1314.53,712.93 1326.62,722.495 1327.8,724.866C1327.99,725.236 1332.58,729.457 1332.12,729.917C1332.01,730.037 1328.84,728.998 1326.16,727.928C1324.8,727.38 1321.56,726.011 1320.13,725.294C1313.64,722.051 1309.93,717.705 1304.14,713.843C1302.35,712.648 1290.5,699.749 1290.5,699.946C1290.5,700.782 1303.86,717.84 1306.51,720.493C1307.95,721.931 1309.03,723.723 1310.51,725.198C1311.67,726.366 1313.17,727.225 1314.19,728.575C1318.64,734.498 1321.85,740.51 1327.3,745.959C1328.52,747.176 1330.58,748.884 1332.1,749.643C1333.13,750.155 1334.24,751.837 1335.26,752.348C1338.04,753.735 1331.84,756.595 1327.75,755.232C1326.26,754.735 1187.87,749.874 1193.14,741.348C1195.56,737.423 1197.65,733.24 1199.83,729.206C1202.56,724.167 1210.57,710.569 1211.5,708.158C1211.56,708.009 1212.2,705.677 1212.07,705.679C1211.6,705.683 1211.22,707.455 1210.95,707.728C1209.95,708.738 1209.28,710.803 1207.55,711.969C1205.58,713.291 1205.14,714.603 1203.79,715.968C1203.7,716.062 1202.66,715.416 1202.57,715.358C1202.12,715.061 1199.49,713.868 1198.71,714.648C1198.01,715.356 1198.89,717.339 1198.1,718.134C1194.56,721.709 1193.7,716.177 1192.11,714.589C1191.78,714.253 1192.42,712.96 1192.52,712.659C1193.21,710.599 1194.67,708.498 1195.7,706.464C1198.03,701.843 1201.89,697.131 1203.52,692.28C1204.59,689.115 1206.39,685.734 1208.34,682.835C1210.4,679.772 1211.86,677.048 1214.06,673.771C1214.78,672.711 1215.43,671.566 1216.01,670.42C1216.16,670.113 1216.34,669.739 1216.42,669.404C1216.47,669.207 1216.42,668.592 1216.42,668.795C1216.42,670.236 1214.44,671.857 1213.88,672.987C1212.42,675.928 1210.2,677.132 1207.68,678.827C1206.63,679.536 1205.98,680.557 1204.94,681.082C1203.42,681.848 1201.18,680.446 1200.59,679.863C1199.67,678.939 1201.67,676.91 1202.03,676.207C1203.82,672.652 1207.13,668.717 1209.51,666.355C1210.23,665.643 1207.15,666.419 1207.23,666.121C1207.49,665.166 1208.89,664.378 1209.73,663.54C1211.97,661.311 1213.12,660.347 1214.88,658.019C1216.07,656.449 1216.61,654.211 1217.57,652.47C1220.23,647.671 1222.23,643.67 1224.73,638.689C1226.59,634.981 1229.11,631.572 1230.6,627.725C1232.13,623.8 1235.06,620.648 1235.06,616.613C1235.06,615.645 1235.34,613.64 1234.65,612.957C1234.48,612.782 1233.38,614.749 1233.23,614.902C1232.19,615.949 1231.25,617.31 1230.18,618.384C1228.72,619.864 1228.03,621.142 1226.73,623.097C1225.83,624.459 1223.26,625.381 1221.77,625.959C1218.51,627.224 1217.48,630.197 1214.27,626.992C1214.08,626.793 1213.87,625.364 1214.17,625.062C1214.82,624.417 1215.99,624.475 1216.53,623.945C1217.49,622.99 1218.51,621.791 1219.44,620.552C1221.24,618.177 1223.27,617.795 1224.65,615.736C1226.72,612.66 1228.6,609.305 1230.7,606.189C1232.32,603.779 1237.54,595.872 1237.77,595.532C1238.14,595.283 1247.65,582.336 1247.39,582.717C1247.25,582.814 1230.12,598.142 1227.81,600.477C1227.51,600.78 1226.65,600.626 1226.39,600.888C1225.78,601.509 1223.47,600.329 1223.34,600.075C1223.08,599.552 1223.94,598.975 1224.16,598.755C1224.91,598.016 1227.02,596.441 1227.65,595.2C1227.96,594.585 1229.44,593.718 1229.8,592.661C1230.56,590.39 1233.21,587.343 1234.82,585.755C1237.07,583.524 1238.37,579.795 1240.87,577.325C1241.01,577.181 1240.09,577.261 1240.05,577.224C1239.87,577.039 1236.91,576.697 1237.41,575.7C1239.14,572.273 1241.39,567.713 1243.36,563.817C1244.12,562.322 1243.21,560.399 1243.98,558.891C1244.23,558.377 1241.52,561.072 1240.93,560.484C1240.4,559.952 1241.24,556.428 1241.45,556.015C1243.68,551.585 1246.54,545.539 1247.85,540.333C1248.95,535.968 1226.18,553.091 1227.59,548.918C1229.08,544.504 1252.75,519.177 1254.41,514.9C1255.51,512.074 1256.56,509.24 1257.27,506.422C1257.52,505.437 1257.72,504.354 1257.88,503.35C1257.95,502.93 1257.95,502.589 1258.09,502.191C1258.14,502.031 1258.09,501.514 1258.09,501.683C1258.09,503.008 1256.02,504.98 1254.43,505.784C1251.6,507.214 1249.71,509.762 1246.46,510.854C1244.85,511.398 1243.82,513.059 1242,513.518C1241.39,513.671 1239.05,513.819 1239.56,513.316C1241.4,511.489 1242.95,508.136 1245.3,505.801C1248.06,503.051 1251.89,499.619 1253.79,496.254C1270.18,467.222 1268.5,456.598 1268.5,456.598C1268.53,456.395 1268.56,456.242 1268.62,456.242L1268.5,456.598C1268.46,456.942 1268.45,457.431 1268.42,457.562C1268.19,458.452 1268.06,459.357 1267.88,460.248ZM1274.43,503.002C1274.36,502.533 1274.28,502.098 1274.2,502.183C1273.48,502.893 1273.86,503.029 1274.43,503.002Z" style="fill:rgb(80,116,116);"/>
    </g>
    <g transform="matrix(-1,0,0,1,1990.1,-209.457)">
        <path d="M1254.26,479.132C1248.68,480.95 1260.5,469.217 1269.78,458.115C1269.9,457.965 1272.17,439.449 1272.38,439.551C1273.22,439.966 1273.67,453.841 1277.12,464.921C1280.33,475.208 1286.57,482.711 1287.06,484.162C1288.06,487.164 1273.52,471.706 1274.02,474.907C1274.73,479.429 1276.13,483.73 1277.45,487.651C1278.01,489.321 1277.52,492.072 1278.88,493.439C1280.34,494.892 1280.52,497.656 1282.16,499.838C1283.93,502.193 1285.42,505.15 1286.52,507.349C1287.68,509.672 1289.97,511.96 1290.61,516.607C1290.78,517.854 1285.47,512.319 1285.08,511.732C1282.79,508.307 1280.53,504.444 1277.36,501.271C1276.9,500.811 1275.87,498.319 1275.12,498.326C1275.08,498.326 1275.23,499.262 1275.23,499.351C1275.23,499.363 1275.92,502.834 1275.74,502.836C1275.55,502.838 1274.92,502.98 1274.43,503.002C1274.5,503.474 1274.56,503.98 1274.61,504.026C1275.41,504.83 1275.32,507.091 1275.32,508.53C1275.32,512.859 1274.96,517.153 1275.68,521.441C1276.18,524.435 1299.76,551.728 1300.26,554.712C1300.86,558.306 1278.8,537.686 1279.68,541.176C1280.15,543.029 1279.38,545.217 1279.99,547.035C1280.11,547.393 1279.84,548.93 1280.09,549.184C1280.51,549.606 1280.6,551.002 1280.95,551.658C1281.86,553.328 1282.57,555.355 1283.26,557.16C1283.77,558.501 1284.91,559.656 1285.56,560.958C1286.89,563.599 1288.29,566.71 1289.84,569.029C1293.97,575.203 1324.48,601.135 1320.48,597.14C1319.29,595.948 1291.11,582.41 1290.36,580.903C1289.54,579.277 1288.61,577.417 1286.86,576.542C1286.8,576.509 1285.41,575.735 1285.36,575.789C1285.03,576.117 1285,578.145 1285.26,578.66C1285.38,578.92 1285.06,579.693 1285.26,579.89C1286.6,581.233 1288.08,585.138 1288.84,587.082C1290.69,591.859 1292.52,597.19 1295.53,601.198C1297.41,603.695 1299.17,605.801 1301.26,608.154C1304.39,611.661 1308.42,614.2 1310.93,619.957C1311.33,620.865 1303.31,617.246 1302.87,616.359C1302.52,615.664 1301.2,615.377 1300.83,614.633C1299.53,612.034 1296.08,610.578 1293.64,609.256C1293.27,609.053 1281.08,591.692 1280.94,591.824C1280.38,592.392 1287.4,611.795 1287.4,612.695C1287.4,618.399 1292.72,622.72 1294.27,627.974C1294.92,630.189 1296.4,632.156 1297.09,634.234C1297.95,636.787 1299.19,639.998 1301.09,641.905C1301.64,642.461 1301.73,643.781 1302.16,644.478C1303.78,647.107 1304.53,650.072 1306.21,652.686C1310.71,659.698 1314.62,666.902 1318.6,674.247C1320.46,677.665 1326.27,685.552 1327.51,689.258C1327.85,690.275 1323.65,687.342 1323.41,688.318C1323.05,689.773 1328.9,696.284 1327.83,697.368C1327.19,698.011 1319.91,693.592 1319.06,693.379C1315.27,692.431 1311.96,690.336 1308.22,689.089C1306.6,688.55 1305.4,687.754 1303.87,687.165C1303.72,687.107 1302.9,686.511 1302.75,686.657C1302.25,687.162 1303.06,688.958 1303.06,689.426C1303.06,691.163 1305.44,693.748 1306.65,694.958C1307.14,695.449 1307.22,696.45 1307.57,696.801C1307.83,697.061 1313.28,703.591 1313.05,703.826C1312.83,704.046 1306.22,699.757 1306.05,699.671C1304.38,698.836 1302.83,698.204 1301.38,697.233C1300.75,696.813 1299.72,696.693 1299.24,696.218C1299.03,696.001 1298.02,696.32 1298.33,696.32C1298.71,696.32 1299.08,697.788 1299.25,697.96C1301.13,699.834 1310.7,709.101 1312.97,711.373C1314.53,712.93 1326.62,722.495 1327.8,724.866C1327.99,725.236 1332.58,729.457 1332.12,729.917C1332.01,730.037 1328.84,728.998 1326.16,727.928C1324.8,727.38 1321.56,726.011 1320.13,725.294C1313.64,722.051 1309.93,717.705 1304.14,713.843C1302.35,712.648 1290.5,699.749 1290.5,699.946C1290.5,700.782 1303.86,717.84 1306.51,720.493C1307.95,721.931 1309.03,723.723 1310.51,725.198C1311.67,726.366 1313.17,727.225 1314.19,728.575C1318.64,734.498 1321.85,740.51 1327.3,745.959C1328.52,747.176 1330.58,748.884 1332.1,749.643C1333.13,750.155 1334.24,751.837 1335.26,752.348C1338.04,753.735 1331.84,756.595 1327.75,755.232C1326.26,754.735 1187.87,749.874 1193.14,741.348C1195.56,737.423 1197.65,733.24 1199.83,729.206C1202.56,724.167 1210.57,710.569 1211.5,708.158C1211.56,708.009 1212.2,705.677 1212.07,705.679C1211.6,705.683 1211.22,707.455 1210.95,707.728C1209.95,708.738 1209.28,710.803 1207.55,711.969C1205.58,713.291 1205.14,714.603 1203.79,715.968C1203.7,716.062 1202.66,715.416 1202.57,715.358C1202.12,715.061 1199.49,713.868 1198.71,714.648C1198.01,715.356 1198.89,717.339 1198.1,718.134C1194.56,721.709 1193.7,716.177 1192.11,714.589C1191.78,714.253 1192.42,712.96 1192.52,712.659C1193.21,710.599 1194.67,708.498 1195.7,706.464C1198.03,701.843 1201.89,697.131 1203.52,692.28C1204.59,689.115 1206.39,685.734 1208.34,682.835C1210.4,679.772 1211.86,677.048 1214.06,673.771C1214.78,672.711 1215.43,671.566 1216.01,670.42C1216.16,670.113 1216.34,669.739 1216.42,669.404C1216.47,669.207 1216.42,668.592 1216.42,668.795C1216.42,670.236 1214.44,671.857 1213.88,672.987C1212.42,675.928 1210.2,677.132 1207.68,678.827C1206.63,679.536 1205.98,680.557 1204.94,681.082C1203.42,681.848 1201.18,680.446 1200.59,679.863C1199.67,678.939 1201.67,676.91 1202.03,676.207C1203.82,672.652 1207.13,668.717 1209.51,666.355C1210.23,665.643 1207.15,666.419 1207.23,666.121C1207.49,665.166 1208.89,664.378 1209.73,663.54C1211.97,661.311 1213.12,660.347 1214.88,658.019C1216.07,656.449 1216.61,654.211 1217.57,652.47C1220.23,647.671 1222.23,643.67 1224.73,638.689C1226.59,634.981 1229.11,631.572 1230.6,627.725C1232.13,623.8 1235.06,620.648 1235.06,616.613C1235.06,615.645 1235.34,613.64 1234.65,612.957C1234.48,612.782 1233.38,614.749 1233.23,614.902C1232.19,615.949 1231.25,617.31 1230.18,618.384C1228.72,619.864 1215.99,624.475 1216.53,623.945C1217.49,622.99 1218.51,621.791 1219.44,620.552C1221.24,618.177 1223.27,617.795 1224.65,615.736C1226.72,612.66 1228.6,609.305 1230.7,606.189C1232.32,603.779 1237.54,595.872 1237.77,595.532C1238.14,595.283 1247.65,582.336 1247.39,582.717C1247.25,582.814 1230.12,598.142 1227.81,600.477C1227.51,600.78 1226.65,600.626 1226.39,600.888C1225.78,601.509 1223.47,600.329 1223.34,600.075C1223.08,599.552 1223.94,598.975 1224.16,598.755C1224.91,598.016 1227.02,596.441 1227.65,595.2C1227.96,594.585 1229.44,593.718 1229.8,592.661C1230.56,590.39 1233.21,587.343 1234.82,585.755C1237.07,583.524 1238.37,579.795 1240.87,577.325C1241.01,577.181 1240.09,577.261 1240.05,577.224C1239.87,577.039 1236.91,576.697 1237.41,575.7C1239.14,572.273 1213.07,586.257 1215.03,582.362C1215.79,580.866 1246.54,545.539 1247.85,540.333C1248.95,535.968 1226.18,553.091 1227.59,548.918C1229.08,544.504 1252.75,519.177 1254.41,514.9C1255.51,512.074 1256.56,509.24 1257.27,506.422C1257.52,505.437 1257.72,504.354 1257.88,503.35C1257.95,502.93 1257.95,502.589 1258.09,502.191C1258.14,502.031 1258.09,501.514 1258.09,501.683C1258.09,503.008 1256.02,504.98 1254.43,505.784C1251.6,507.214 1249.71,509.762 1246.46,510.854C1244.85,511.398 1243.82,513.059 1242,513.518C1241.39,513.671 1239.05,513.819 1239.56,513.316C1241.4,511.489 1242.95,508.136 1245.3,505.801C1248.06,503.051 1251.89,499.619 1253.79,496.254C1258.92,487.174 1264.88,475.673 1254.26,479.132ZM1274.43,503.002C1274.36,502.533 1274.28,502.098 1274.2,502.183C1273.48,502.893 1273.86,503.029 1274.43,503.002Z" style="fill:rgb(80,116,116);"/>
    </g>
    <g transform="matrix(-1,0,0,1,2186.02,-172.227)">
        <path d="M1254.26,479.132C1248.68,480.95 1260.5,469.217 1269.78,458.115C1269.9,457.965 1272.17,439.449 1272.38,439.551C1273.22,439.966 1273.67,453.841 1277.12,464.921C1280.33,475.208 1286.57,482.711 1287.06,484.162C1288.06,487.164 1273.52,471.706 1274.02,474.907C1274.73,479.429 1276.13,483.73 1277.45,487.651C1278.01,489.321 1277.52,492.072 1278.88,493.439C1280.34,494.892 1280.52,497.656 1282.16,499.838C1283.93,502.193 1285.42,505.15 1286.52,507.349C1287.68,509.672 1289.97,511.96 1290.61,516.607C1290.78,517.854 1285.47,512.319 1285.08,511.732C1282.79,508.307 1280.53,504.444 1277.36,501.271C1276.9,500.811 1275.87,498.319 1275.12,498.326C1275.08,498.326 1275.23,499.262 1275.23,499.351C1275.23,499.363 1275.92,502.834 1275.74,502.836C1275.55,502.838 1274.92,502.98 1274.43,503.002C1274.5,503.474 1274.56,503.98 1274.61,504.026C1275.41,504.83 1275.32,507.091 1275.32,508.53C1275.32,512.859 1274.96,517.153 1275.68,521.441C1276.18,524.435 1299.76,551.728 1300.26,554.712C1300.86,558.306 1278.8,537.686 1279.68,541.176C1280.15,543.029 1279.38,545.217 1279.99,547.035C1280.11,547.393 1279.84,548.93 1280.09,549.184C1280.51,549.606 1280.6,551.002 1280.95,551.658C1281.86,553.328 1282.57,555.355 1283.26,557.16C1283.77,558.501 1284.91,559.656 1285.56,560.958C1286.89,563.599 1288.29,566.71 1289.84,569.029C1293.97,575.203 1324.48,601.135 1320.48,597.14C1319.29,595.948 1291.11,582.41 1290.36,580.903C1289.54,579.277 1288.61,577.417 1286.86,576.542C1286.8,576.509 1285.41,575.735 1285.36,575.789C1285.03,576.117 1285,578.145 1285.26,578.66C1285.38,578.92 1285.06,579.693 1285.26,579.89C1286.6,581.233 1288.08,585.138 1288.84,587.082C1290.69,591.859 1292.52,597.19 1295.53,601.198C1297.41,603.695 1299.17,605.801 1301.26,608.154C1304.39,611.661 1308.42,614.2 1310.93,619.957C1311.33,620.865 1303.31,617.246 1302.87,616.359C1302.52,615.664 1301.2,615.377 1300.83,614.633C1299.53,612.034 1296.08,610.578 1293.64,609.256C1293.27,609.053 1281.08,591.692 1280.94,591.824C1280.38,592.392 1287.4,611.795 1287.4,612.695C1287.4,618.399 1292.72,622.72 1294.27,627.974C1294.92,630.189 1296.4,632.156 1297.09,634.234C1297.95,636.787 1299.19,639.998 1301.09,641.905C1301.64,642.461 1301.73,643.781 1302.16,644.478C1303.78,647.107 1304.53,650.072 1306.21,652.686C1310.71,659.698 1314.62,666.902 1318.6,674.247C1320.46,677.665 1326.27,685.552 1327.51,689.258C1327.85,690.275 1323.65,687.342 1323.41,688.318C1323.05,689.773 1328.9,696.284 1327.83,697.368C1327.19,698.011 1319.91,693.592 1319.06,693.379C1315.27,692.431 1311.96,690.336 1308.22,689.089C1306.6,688.55 1305.4,687.754 1303.87,687.165C1303.72,687.107 1302.9,686.511 1302.75,686.657C1302.25,687.162 1303.06,688.958 1303.06,689.426C1303.06,691.163 1305.44,693.748 1306.65,694.958C1307.14,695.449 1307.22,696.45 1307.57,696.801C1307.83,697.061 1313.28,703.591 1313.05,703.826C1312.83,704.046 1306.22,699.757 1306.05,699.671C1304.38,698.836 1302.83,698.204 1301.38,697.233C1300.75,696.813 1299.72,696.693 1299.24,696.218C1299.03,696.001 1298.02,696.32 1298.33,696.32C1298.71,696.32 1299.08,697.788 1299.25,697.96C1301.13,699.834 1310.7,709.101 1312.97,711.373C1314.53,712.93 1326.62,722.495 1327.8,724.866C1327.99,725.236 1332.58,729.457 1332.12,729.917C1332.01,730.037 1328.84,728.998 1326.16,727.928C1324.8,727.38 1321.56,726.011 1320.13,725.294C1313.64,722.051 1309.93,717.705 1304.14,713.843C1302.35,712.648 1290.5,699.749 1290.5,699.946C1290.5,700.782 1303.86,717.84 1306.51,720.493C1307.95,721.931 1309.03,723.723 1310.51,725.198C1311.67,726.366 1313.17,727.225 1314.19,728.575C1318.64,734.498 1321.85,740.51 1327.3,745.959C1328.52,747.176 1330.58,748.884 1332.1,749.643C1333.13,750.155 1334.24,751.837 1335.26,752.348C1338.04,753.735 1331.84,756.595 1327.75,755.232C1326.26,754.735 1187.87,749.874 1193.14,741.348C1195.56,737.423 1197.65,733.24 1199.83,729.206C1202.56,724.167 1210.57,710.569 1211.5,708.158C1211.56,708.009 1212.2,705.677 1212.07,705.679C1211.6,705.683 1211.22,707.455 1210.95,707.728C1209.95,708.738 1209.28,710.803 1207.55,711.969C1205.58,713.291 1205.14,714.603 1203.79,715.968C1203.7,716.062 1202.66,715.416 1202.57,715.358C1202.12,715.061 1199.49,713.868 1198.71,714.648C1198.01,715.356 1198.89,717.339 1198.1,718.134C1194.56,721.709 1193.7,716.177 1192.11,714.589C1191.78,714.253 1192.42,712.96 1192.52,712.659C1193.21,710.599 1194.67,708.498 1195.7,706.464C1198.03,701.843 1201.89,697.131 1203.52,692.28C1204.59,689.115 1206.39,685.734 1208.34,682.835C1210.4,679.772 1211.86,677.048 1214.06,673.771C1214.78,672.711 1215.43,671.566 1216.01,670.42C1216.16,670.113 1216.34,669.739 1216.42,669.404C1216.47,669.207 1216.42,668.592 1216.42,668.795C1216.42,670.236 1214.44,671.857 1213.88,672.987C1212.42,675.928 1210.2,677.132 1207.68,678.827C1206.63,679.536 1205.98,680.557 1204.94,681.082C1203.42,681.848 1201.18,680.446 1200.59,679.863C1199.67,678.939 1201.67,676.91 1202.03,676.207C1203.82,672.652 1207.13,668.717 1209.51,666.355C1210.23,665.643 1207.15,666.419 1207.23,666.121C1207.49,665.166 1208.89,664.378 1209.73,663.54C1211.97,661.311 1213.12,660.347 1214.88,658.019C1216.07,656.449 1216.61,654.211 1217.57,652.47C1220.23,647.671 1222.23,643.67 1224.73,638.689C1226.59,634.981 1229.11,631.572 1230.6,627.725C1232.13,623.8 1235.06,620.648 1235.06,616.613C1235.06,615.645 1235.34,613.64 1234.65,612.957C1234.48,612.782 1233.38,614.749 1233.23,614.902C1232.19,615.949 1231.25,617.31 1230.18,618.384C1228.72,619.864 1215.99,624.475 1216.53,623.945C1217.49,622.99 1218.51,621.791 1219.44,620.552C1221.24,618.177 1223.27,617.795 1224.65,615.736C1226.72,612.66 1228.6,609.305 1230.7,606.189C1232.32,603.779 1237.54,595.872 1237.77,595.532C1238.14,595.283 1247.65,582.336 1247.39,582.717C1247.25,582.814 1230.12,598.142 1227.81,600.477C1227.51,600.78 1226.65,600.626 1226.39,600.888C1225.78,601.509 1223.47,600.329 1223.34,600.075C1223.08,599.552 1223.94,598.975 1224.16,598.755C1224.91,598.016 1227.02,596.441 1227.65,595.2C1227.96,594.585 1229.44,593.718 1229.8,592.661C1230.56,590.39 1233.21,587.343 1234.82,585.755C1237.07,583.524 1238.37,579.795 1240.87,577.325C1241.01,577.181 1240.09,577.261 1240.05,577.224C1239.87,577.039 1236.91,576.697 1237.41,575.7C1239.14,572.273 1213.07,586.257 1215.03,582.362C1215.79,580.866 1246.54,545.539 1247.85,540.333C1248.95,535.968 1226.18,553.091 1227.59,548.918C1229.08,544.504 1252.75,519.177 1254.41,514.9C1255.51,512.074 1256.56,509.24 1257.27,506.422C1257.52,505.437 1257.72,504.354 1257.88,503.35C1257.95,502.93 1257.95,502.589 1258.09,502.191C1258.14,502.031 1258.09,501.514 1258.09,501.683C1258.09,503.008 1256.02,504.98 1254.43,505.784C1251.6,507.214 1249.71,509.762 1246.46,510.854C1244.85,511.398 1243.82,513.059 1242,513.518C1241.39,513.671 1239.05,513.819 1239.56,513.316C1241.4,511.489 1242.95,508.136 1245.3,505.801C1248.06,503.051 1251.89,499.619 1253.79,496.254C1258.92,487.174 1264.88,475.673 1254.26,479.132ZM1274.43,503.002C1274.36,502.533 1274.28,502.098 1274.2,502.183C1273.48,502.893 1273.86,503.029 1274.43,503.002Z" style="fill:rgb(80,116,116);"/>
    </g>
</svg>
