<?xml version="1.0" encoding="UTF-8" standalone="no"?>
<!DOCTYPE svg PUBLIC "-//W3C//DTD SVG 1.1//EN" "http://www.w3.org/Graphics/SVG/1.1/DTD/svg11.dtd">
<svg width="100%" height="100%" viewBox="0 0 3840 1038" version="1.1" xmlns="http://www.w3.org/2000/svg" xmlns:xlink="http://www.w3.org/1999/xlink" xml:space="preserve" xmlns:serif="http://www.serif.com/" style="fill-rule:evenodd;clip-rule:evenodd;stroke-linejoin:round;stroke-miterlimit:2;">
    <path d="M816.163,703.787C833.221,701.971 904.312,704.49 919.612,700.629C946.474,693.849 968.163,668.883 992.653,655.555C1011.4,645.354 1028.54,629.251 1044.58,615.249C1070.96,592.223 1115.52,562.917 1146.73,545.613C1192.96,519.974 1240.68,492.765 1285.04,464.463C1316.57,444.343 1352.7,429.974 1385.33,411.698C1433.91,384.495 1486.94,362.217 1532.04,329.068C1544.33,320.04 1560.47,310.2 1572.01,300.128C1612,265.224 1698.18,192.903 1704.92,186.116C1725.6,165.304 1745.01,144.984 1767.62,127.493C1775.42,121.46 1783.23,110.031 1791.67,105.77C1791.8,105.703 1791.97,105.77 1792.12,105.77C1792.45,105.77 1816.51,123.316 1818.45,125.009C1846.11,149.099 1876.62,172.007 1905.76,194.702C1950.47,229.534 1995.34,263.035 2042.88,293.323C2055.93,301.641 2069,311.859 2082.9,318.806C2101,327.858 2113.45,347.342 2131.85,355.741C2151.77,364.835 2172.91,374.615 2191.8,386.649C2207.84,396.869 2215.24,404.426 2231.27,414.508C2237.19,418.23 2248.37,430.475 2254.17,434.407C2308.78,471.414 2363.85,508.089 2419.71,543.936C2443.95,559.494 2467.39,576.276 2491.54,591.716C2493.83,593.176 2543.41,611.758 2557.83,615.067C2591.74,622.844 2625.63,628.44 2660.24,632.143C2702.34,636.647 2744.65,639.344 2786.92,643.56C2818.48,646.707 2849.93,653.282 2881.83,653.282C2885.71,653.282 2945.74,657.335 2946.07,657.665C2947.85,659.444 2989.96,663.34 3006.35,665.795C3032.81,669.759 3060.02,669.252 3086.62,671.788C3116.97,674.683 3146.62,681.311 3176.84,684.955C3256.98,694.618 3338.27,692.057 3418.62,701.745C3442.42,704.614 3467.01,700.883 3490.79,703.847C3495.86,704.478 3502.43,703.973 3507.2,705.562C3508.78,706.089 3561.82,710.769 3562.52,711.464C3563.16,712.107 3590.69,710.705 3592.51,711.008C3617.69,715.205 3643.86,716.822 3669.3,719.993C3687.53,722.264 3706.32,714.64 3724.37,717.648C3739.42,720.155 3755.26,716.869 3770.23,719.363C3775.44,720.231 3842.93,721.552 3842.93,721.552C3823.78,721.552 3848.1,724.553 3848.1,724.553C3848.1,773.955 3846.81,823.047 3846.81,872.508C3846.81,892.505 3844.33,914.354 3846.81,934.253C3853.29,986.249 3854.53,1039.43 3854.53,1092.1C3854.53,1121.95 3855.06,1151.79 3852.97,1181.49C3852.69,1185.44 3852.36,1204.56 3849.11,1206.17C3847,1207.21 3838.72,1202.91 3836.11,1202.16C3819.46,1197.4 3803.63,1190.96 3786.56,1187.11C3727.32,1173.76 3668.43,1164.8 3607.84,1160.88C3514.9,1154.88 3422.18,1152.03 3329.17,1159.01C3266.12,1163.73 3203.37,1174.99 3141.08,1184.73C3094.8,1191.96 3047.89,1196.54 3001.47,1203.5C2957.86,1210.05 2914.96,1221.16 2871.1,1226.39C2824.19,1231.98 2775.43,1228.19 2728.38,1228.19C2697.05,1228.19 2665.96,1232.35 2634.63,1232.35C2603.55,1232.35 2572.88,1232.74 2541.92,1234C2535.7,1234.26 2514.01,1234.94 2508.09,1229.02C2506.93,1227.87 2507.37,1226.84 2508.75,1225.88C2512.35,1225.69 2515.93,1225.48 2519.52,1225.22C2523.8,1224.92 2541.76,1222.3 2552.25,1221.74C2550.85,1221.29 2549.53,1220.92 2548.57,1220.8C2543.87,1220.26 2529.59,1217.18 2523.19,1219.96C2518.07,1222.19 2511.51,1223.93 2508.75,1225.88C2462.12,1228.22 2415.11,1224.6 2368.51,1224.3C2349.87,1224.18 2331.62,1221.3 2313.06,1220.01C2278.2,1217.57 2242.84,1217.17 2207.98,1215.88C2106.8,1212.13 2005.87,1204.36 1904.77,1200.33C1867.96,1198.87 1831.1,1199.63 1794.25,1198.13C1596.45,1190.05 1398.91,1179.3 1201.07,1174.14C1124.19,1172.14 1046.63,1178.34 969.854,1174.14C960.641,1173.64 939.709,1174.17 932.927,1168.1C931.804,1167.09 947.994,1157.99 945.76,1157.99C937.209,1157.99 927.41,1160.3 918.591,1158.44C905.641,1155.71 894.758,1148.97 881.282,1147.7C844.142,1144.19 806.564,1144.7 769.358,1141.15C676.65,1132.32 584.484,1117.6 491.691,1109.38C411.328,1102.26 331.146,1099.65 250.557,1099.65C233.279,1099.65 216.233,1103.22 199.056,1104.43C173.407,1106.24 145.967,1105.79 120.291,1104.43C84.726,1102.54 49.834,1094.21 14.583,1089.78C-19.634,1085.48 -53.848,1082.03 -87.981,1078.7C-89.702,1078.53 -88.291,1075.36 -87.989,1075.05C-79.272,1066.25 -59.883,1082.32 -53.768,1063.93C-44.571,1036.28 -28.293,1010.64 -19.512,983.019C-15.199,969.451 -13.053,954.699 -10.206,940.802C-7.134,925.814 -9.155,908.55 -9.155,893.223C-9.155,853.108 -9.123,812.565 -14.079,772.919C-15.964,757.844 -32.263,711.657 -19.881,699.156C-17.543,696.795 0.946,698.231 4.959,698.231L816.163,703.787ZM2552.25,1221.74C2556.36,1223.03 2561.19,1224.9 2559.91,1222.36C2559.54,1221.62 2556.51,1221.51 2552.25,1221.74Z" style="fill:rgb(164,186,182);"/>
    <path d="M1792.01,100.55C1792.01,101.94 1776.92,118.492 1772.11,122.498C1764.65,128.708 1756.56,135.578 1749.68,142.438C1744.77,147.34 1741.24,152.887 1734.97,155.286C1732.25,156.329 1721.76,166.918 1719.1,169.96C1713.68,176.154 1708.12,182.576 1702.29,188.394C1694.52,196.162 1684.74,203.159 1676.6,210.551C1671.37,215.303 1621.01,258.105 1613.96,263.262C1597.69,275.151 1585.07,288.731 1568.94,300.814C1561.22,306.599 1531.98,328.628 1524.96,333.303C1511.01,342.593 1472.06,365.547 1471.11,366.407C1467.31,369.864 1454.96,374.102 1442.74,382.092C1442,382.577 1531.5,371.414 1546.37,366.623C1554.25,364.083 1582.57,352.689 1589.55,351.156C1592.2,350.571 1626.42,335.283 1627.2,335.275C1627.88,335.269 1610.87,420.092 1610.51,422.218C1609.09,430.598 1602.36,460.582 1601.57,463.74C1600.2,469.237 1599.31,475.333 1597.32,480.658C1596.73,482.207 1596.09,484.053 1595.77,485.646C1595.72,485.884 1595.14,488.18 1595.02,488.061C1594.77,487.81 1596.81,485.669 1596.91,485.558C1599.9,482.252 1602.71,479.319 1605.39,475.654C1608.66,471.196 1611.27,466.068 1614.87,461.8C1618.37,457.64 1622.43,453.236 1624.88,448.32C1632.45,433.144 1664.86,387.036 1670.61,377.662C1673.4,373.119 1689.83,345.503 1695.33,336.305C1700.88,327.021 1707.8,318.437 1713.65,309.346C1715.01,307.225 1720.96,299.625 1720.96,298.55C1720.96,297.881 1722.1,315.846 1722.49,320.618C1723.76,336.265 1726.53,351.724 1728.11,367.304C1729.73,383.249 1733.53,398.982 1736.53,414.73C1739.2,428.758 1741.38,443.185 1745.46,456.886C1746.32,459.781 1753.44,482.819 1757.45,490.962C1760.89,497.96 1763.55,505.069 1767.24,511.936C1768.35,514.001 1769.75,519.107 1771.92,520.193C1772.26,520.361 1775.47,511.154 1776.37,508.986C1781.98,495.507 1784.87,480.652 1787.72,466.428C1789.72,456.384 1797.66,437.755 1799.48,427.372C1801.94,413.37 1804.38,406.956 1807.07,396.846C1810.5,383.924 1812.39,370.793 1814.59,357.578C1815.7,350.888 1816.88,344.464 1817.42,337.734C1818,330.575 1819.38,323.518 1820.2,316.335C1820.7,311.875 1824.76,299.824 1825.09,300.532C1826.08,302.709 1848.09,351.43 1858.57,364.175C1870.06,378.139 1905.04,419.325 1911.14,425.886C1920.02,435.452 1975.08,499.811 1977.99,499.783C1978.5,499.778 1978.1,498.745 1977.99,498.244C1977.79,497.352 1966.53,460.199 1963.96,448.639C1959.88,430.305 1954.07,412.68 1947.9,394.965C1943.88,383.395 1939.77,371.142 1933.31,360.633C1922.46,342.963 1910.99,325.336 1903.27,306.047C1901.73,302.18 1896.43,290.177 1896.43,288.169C1896.43,287.45 1975.52,351.571 1987.57,358.62C2009.8,371.624 2032.33,383.821 2053.42,398.934C2064.4,406.806 2077.44,414.399 2090.12,419.292C2094.36,420.929 2110.28,426.148 2109.72,425.665C2105.36,421.926 2102.51,415.878 2098.34,411.775C2091.04,404.59 2083.83,397.325 2077.5,389.178C2071.33,381.249 2065.87,372.531 2059.28,364.835C2052.07,356.425 2019.85,318.217 2019.46,317.692C2018.87,316.898 2016.45,311.955 2015.64,311.947C2015.41,311.945 2036.12,325.254 2041.66,328.946C2049.43,334.123 2059.03,338.902 2067.76,342.169C2070.77,343.297 2073.35,345.332 2076.29,346.626C2087.57,351.578 2099.18,356.912 2111.24,359.557C2114.7,360.313 2118.07,361.678 2121.5,362.502C2126.2,363.631 2141.73,365.499 2144.38,365.499C2145.02,365.499 2152.32,366.605 2151.45,366.098C2142.41,360.825 2129.52,352.369 2120.17,345.859C2106.87,336.597 2084.21,318.752 2070.93,310.126C2059.05,302.414 2025.92,278.555 2009.87,268.502C1998.66,261.488 1987.24,254.464 1975.95,247.528C1959.56,237.464 1946.84,223.15 1932.53,210.689C1926.82,205.714 1920.87,201.029 1915.16,196.057C1905.28,187.448 1895.9,178.365 1886.59,169.062C1881.31,163.782 1875.15,159.08 1869.11,154.778C1861.97,149.691 1855.41,143.62 1848.26,138.437C1841.26,133.36 1834.44,127.967 1826.89,123.791C1819.89,119.91 1813.67,115.353 1806.54,111.779C1804.13,110.574 1792.01,100.55 1792.01,100.55Z" style="fill:rgb(222,222,222);"/>
</svg>
