<?xml version="1.0" encoding="UTF-8" standalone="no"?>
<!DOCTYPE svg PUBLIC "-//W3C//DTD SVG 1.1//EN" "http://www.w3.org/Graphics/SVG/1.1/DTD/svg11.dtd">
<svg width="100%" height="100%" viewBox="0 0 3840 1038" version="1.1" xmlns="http://www.w3.org/2000/svg" xmlns:xlink="http://www.w3.org/1999/xlink" xml:space="preserve" xmlns:serif="http://www.serif.com/" style="fill-rule:evenodd;clip-rule:evenodd;stroke-linejoin:round;stroke-miterlimit:2;">
    <g transform="matrix(1,0,0,1,174,0)">
        <path d="M1784.43,557.459C1943.7,539.403 2200.19,401.068 2206.43,396.272C2234.58,374.612 2315.7,319.945 2358.56,263.096C2408.83,196.406 2458.68,97.481 2460.33,100.051C2465.24,107.664 2491.39,156.177 2536,217.756C2540.72,224.272 2545.47,230.794 2550.22,237.275C2604.11,310.854 2657.53,379.159 2660.89,374.075C2661,373.915 2693.97,340.136 2740.22,273.552C2754.54,252.946 2748.15,238.488 2809.05,316.424C2865.41,388.544 2899.63,436.753 2924.94,470.782C2937.98,488.318 3066.29,640.754 3072.16,632.516C3131.15,549.671 3149.66,466.554 3186.88,408.304C3199.57,388.439 3270.13,523.249 3397.26,579.02C3435.05,595.597 3621.26,654.779 3663.61,659.146C3677.94,660.624 3663.91,1034.45 3663.91,1034.45C3663.91,1059.93 3518.19,1039.04 3491.59,1038.48C3479.31,1038.23 3259.71,1043.7 3249.65,1042.48C3202.14,1036.74 -173.871,1038.75 -173.871,1038.75L-175.9,426.684C-175.9,426.684 -66.69,442.47 21.743,400.094C62.889,380.377 149.038,288.625 149.038,281.82C149.038,281.405 438.057,463.627 448.368,456.964C501.806,422.433 505.934,412.833 537.427,369.226C562.193,334.934 579.218,306.344 589.078,279.98C597.349,257.863 637.963,157.509 644.243,136.736C652.345,109.932 669.56,197.678 693.21,247.512C716.497,296.579 747.632,332.771 768.932,358.474C794.747,389.628 995.05,479.614 1076.46,497.719C1242.23,534.587 1569.81,581.788 1784.43,557.459Z" style="fill:rgb(160,193,193);"/>
    </g>
    <path d="M2631.17,100.494L2630.97,100.494" style="fill:none;"/>
    <g transform="matrix(-0.586333,0.802639,-0.807493,-0.589878,4666.19,-1745.93)">
        <path d="M2941.81,-368.044C2947.42,-359.627 3141.31,-96.797 3133.07,-82.103C3014.32,129.422 2988.72,172.051 2944.09,237.492C2924.38,266.393 3058.94,127.824 3037.56,158.01C3002.95,206.879 2948.7,273.278 2921.44,293.54C2887.67,318.637 3073.29,219.227 3045.43,246.551C3015.46,275.937 2936.38,381.497 2901.76,401.081C2879.12,413.885 2947.91,395.222 2946.26,396.417C2916.89,417.683 2871.83,456.022 2834.89,482.471C2810.98,499.591 2725.3,557.839 2713.22,550.137C2710.64,548.496 2746.35,459.572 2766.28,400.764C2770.52,388.262 2783.35,340.347 2795.31,299.045C2806.33,261.005 2832.37,156.293 2847.63,102.749" style="fill:rgb(161,185,185);"/>
    </g>
    <path d="M2632.8,96.777C2634.2,96.777 2656.45,137.775 2661.43,142.747C2663.09,144.413 2696.12,197.37 2699.77,202.199C2707,211.783 2712.27,225.813 2712.12,225.971C2711.07,227.003 2677.41,197.342 2671.13,191.061C2668.71,188.641 2663.88,182.74 2663.75,182.865C2662.49,184.117 2662.44,187.635 2661.9,189.975C2660.61,195.588 2661.05,201.486 2659.66,206.98C2659.1,209.206 2659.9,214.444 2658.24,216.086C2657.31,217.011 2648.27,199.22 2645.86,193.951C2645.15,192.406 2644.79,189.221 2643.71,188.145C2643.42,187.855 2639.7,194.975 2638.54,197.096C2635.64,202.415 2630.84,211.59 2625.62,215.047C2624.68,215.671 2622.39,219.318 2621.32,219.312C2620.6,219.309 2617.99,202.753 2616.96,198.285C2616.16,194.784 2614.84,188.258 2614.61,188.719C2614.17,189.592 2611.18,195.946 2609.67,198.213C2605.91,203.826 2591.33,218.923 2589.94,218.91C2589.55,218.906 2589.68,199.291 2586.78,196.387C2586.49,196.1 2556.87,224.573 2555.82,225.613C2555.69,225.741 2564.24,212.81 2565.48,209.574C2569.31,199.617 2574.78,189.924 2580.61,182.111C2584.7,176.631 2588.14,170.362 2591.36,164.381C2593.14,161.078 2611.73,128.156 2616.79,120.514C2619.69,116.14 2632.8,96.777 2632.8,96.777Z" style="fill:rgb(216,216,216);"/>
    <path d="M1501.15,539.956C1484.7,539.956 1428.17,529.75 1413.51,527.568C1398.77,525.375 1384.86,523.973 1370.32,520.626C1357.03,517.567 1304.45,506.801 1312.4,512.53C1314.5,514.042 1327.62,518.123 1358.14,534.118C1400.62,556.375 1511.67,564.778 1510.73,564.912C1472.6,570.332 1353.55,565.25 1311.29,561.225C1275.45,557.812 1223.67,544.135 1222.05,545.739C1221.65,546.14 1248.14,566.704 1280.8,578.631C1300.31,585.757 1367.91,601.455 1370.03,602.16C1370.75,602.403 1337.4,600.901 1336.64,600.901C1321.97,600.901 1280.38,603.433 1233.58,600.284C1215.82,599.089 1146.76,591.073 1107.19,584.75C1107.04,584.726 1170.69,615.607 1189.51,619.731C1250.45,633.086 1309.58,649.127 1371.73,654.022C1387.93,655.297 1403.98,656.788 1420.27,656.788C1425.89,656.788 1440.35,656.824 1442.02,657.24C1442.89,657.459 1302,669.086 1258.17,671.97C1207.04,675.335 1102.71,672.674 1074.66,676.053C1068.87,676.751 1048.62,676.437 1044.09,680.93C1043.94,681.077 1054.36,684.456 1055.11,685.207C1059.82,689.918 1068.86,694.183 1075.14,697.324C1097.81,708.644 1108.72,719.564 1124.68,740.734C1153.79,779.347 1200.16,820.691 1196.69,1035.21C1196.21,1065.1 1525.68,1036.03 1599.28,1036.13C1734.21,1036.33 2192.13,1049.72 2216.75,1037.35C2235.83,1027.77 2003.5,855.384 1960.22,836.197C1896.45,807.92 1764.16,785.53 1767.07,763.959C1770.37,739.549 2047.63,739.973 2107.78,729.035C2143.51,722.537 2255.4,677.845 2251.97,674.42C2250.18,672.633 2156.66,647.716 2153.39,647.716C2135.9,647.716 2199.29,601.583 2182.14,598.712C2168.93,596.502 2124.35,614.028 2082.01,616.947C2028.24,620.656 1975.27,610.329 1964.13,610.329C1962.27,610.329 2024.87,593.953 2036.18,589.562C2067.47,577.409 2107.72,556.9 2105.3,556.9C2095.07,556.9 2044.95,567.339 2034.88,569.455C1996.21,577.571 1965.69,579.004 1934.98,579.004C1932.68,579.004 1988.29,566.343 2006.79,559.258C2017.99,554.964 2042.83,539.247 2042.8,539.276C2035.91,546.099 1929.88,553.196 1915.8,555.384C1865.78,563.16 1671.75,554.212 1663.33,554.237C1618.05,554.375 1501.15,539.956 1501.15,539.956Z" style="fill:rgb(148,187,187);"/>
    <path d="M1682.28,560.054C1716.17,554.421 1698.9,553.628 1717.49,554.613C1761.85,556.962 1547.36,589.714 1578.32,606.469C1611.71,624.542 2009.59,644.104 2013.79,652.516C2014.59,654.107 2138.31,667.098 2137.19,667.841C2116.47,681.566 1446.73,721.721 1428.8,739.477C1419.96,748.234 1988.53,1038.23 1987.57,1040.14C1984.49,1046.24 1668.7,1039.29 1663.37,1035.52C1465.14,895.545 1419.18,861.529 1380.18,842.38C1206.4,757.044 1175.57,719.704 1196.68,714.599C1227.12,707.236 1327.52,705.292 1386.06,698.253C1388.72,697.932 1854.69,667.392 1853.93,665.865C1844.7,647.409 1458.85,621.657 1442.32,610.601C1441.82,610.263 1621.05,570.235 1682.28,560.054Z" style="fill:rgb(120,169,196);"/>
    <path d="M817.034,123.578C818.955,121.639 814.5,183.206 816.104,199.289C816.872,206.988 835.988,303.317 836.643,311.024C838.015,327.157 812.141,264.24 810.782,280.17C809.705,292.789 816.551,347.442 819.385,359.787C824.702,382.951 838.8,432.849 845.77,448.985C856.217,473.169 794.932,367.641 806.274,420.67C814.645,459.808 844.532,532.428 851.75,565.854C853.773,575.221 802.739,512.523 804.78,521.834C804.782,521.847 871.183,662.378 870.776,662.782C869.566,663.98 854.521,663.168 849.061,663.43C823.708,664.646 472.342,672.145 453.954,669.067C448.387,668.135 430.345,668.916 430.641,668.619C434.478,664.774 442.665,655.241 446.508,651.393C455.812,642.08 492.979,585.076 508.135,571.407C516.557,563.811 612.882,468.781 623.459,458.022C625.21,456.241 690.757,396.378 698.557,382.11C735.081,315.297 768.256,239.338 779.29,210.752C783.273,200.433 788.452,190.609 792.686,180.436C798.428,166.639 814.378,126.259 817.034,123.578Z" style="fill:rgb(162,185,185);"/>
    <g transform="matrix(1,0,0,1,-1810.97,39.1328)">
        <path d="M2626.57,75.117C2632.55,71.556 2671.26,189.799 2673.35,195.81C2679.58,213.702 2696.96,237.922 2695.31,239.563C2694.37,240.489 2648.27,199.22 2645.86,193.951C2645.15,192.406 2651.28,224.345 2650.2,223.269C2649.91,222.979 2632.01,192.308 2630.86,194.429C2627.96,199.748 2628.81,208.191 2625.62,215.047C2625.14,216.071 2622.7,225.25 2621.63,225.245C2620.9,225.242 2617.99,202.753 2616.96,198.285C2616.16,194.784 2614.84,188.258 2614.61,188.719C2614.17,189.592 2607.8,195.94 2606.28,198.207C2602.53,203.82 2565.68,232.344 2564.28,232.33C2563.89,232.327 2575.83,201.531 2579.07,193.607C2579.22,193.232 2589.1,168.119 2592.33,162.138C2594.11,158.835 2603.78,143.032 2612.95,118.842C2614.72,114.191 2624.19,74.484 2626.57,75.117Z" style="fill:rgb(216,216,216);"/>
    </g>
</svg>
