<?xml version="1.0" encoding="UTF-8" standalone="no"?>
<!DOCTYPE svg PUBLIC "-//W3C//DTD SVG 1.1//EN" "http://www.w3.org/Graphics/SVG/1.1/DTD/svg11.dtd">
<svg width="100%" height="100%" viewBox="0 0 3840 1038" version="1.1" xmlns="http://www.w3.org/2000/svg" xmlns:xlink="http://www.w3.org/1999/xlink" xml:space="preserve" xmlns:serif="http://www.serif.com/" style="fill-rule:evenodd;clip-rule:evenodd;stroke-linejoin:round;stroke-miterlimit:2;">
    <g transform="matrix(1,0,0,1.00357,0,-3.70805)">
        <rect x="-1.976" y="1.022" width="3841.19" height="1037.24" style="fill:url(#_Linear1);"/>
    </g>
    <g transform="matrix(1,0,0,1,289.173,-290.151)">
        <path d="M308.633,402.591C308.938,402.591 144.008,382.678 210.434,378.789C231.372,377.563 540.508,418.483 561.158,415.04C564.577,414.47 463.93,391.609 472.795,392.451C532.777,398.148 619.489,392.772 628.213,392.772C650.594,392.772 677.676,385.255 697.216,385.255C708.879,385.255 685.83,385.333 682.457,385.333C679.784,385.333 687.801,385.333 690.473,385.333L703.363,385.333C717.239,386.279 733.693,399.089 747.603,399.873C774.504,401.388 799.459,388.486 826.155,391.982C838.302,393.573 837.962,393.619 850.175,393.619C856.721,393.619 856.46,393.553 863.065,394.67C863.882,394.809 866.098,394.539 865.51,395.122C861.935,398.662 838.291,395.331 833.455,400.12C833.366,400.209 842.623,400.227 850.11,400.227C861.216,400.227 871.994,397.009 883.197,397.009C897.537,397.009 910.592,393.261 924.667,391.756C939.821,390.137 955.482,390.948 970.714,389.997C975.958,389.67 1079.4,383.423 1081.62,385.633C1082.14,386.157 983.754,403.097 976.277,405.071C962.833,408.62 906.445,415.895 895.709,426.529C895.175,427.059 897.438,427.064 897.968,426.529C898.295,426.199 904.079,425.042 904.178,425.018C910.983,423.315 917.912,424.262 924.874,423.266C944.855,420.407 964.936,418.295 985.021,416.285C1039.85,410.798 1096.64,410.019 1151.75,410.365C1183.3,410.563 1212.83,402.829 1243.89,400.246C1269.22,398.141 1294.8,398.67 1320.17,397.046C1340.06,395.773 1359.28,392.481 1379.31,392.481L1378.4,392.481C1377.5,393.379 1368.32,394.804 1367.96,394.883C1360.85,396.44 1353.73,397.998 1346.62,399.556C1335.22,402.051 1279.21,403.724 1323.44,417.796C1360.35,429.535 1467.41,414.172 1504.48,407.039C1544.45,399.344 1584.28,397.686 1624.82,395.482C1659.38,393.604 1691.97,385.069 1726.47,381.968C1763.08,378.676 1798.82,377.125 1835.68,377.125C1839.23,377.125 1939.83,374.028 1942.92,377.121C1943.04,377.243 1853.87,397.721 1853.2,397.823C1811.03,404.233 1724.35,419.478 1705.29,422.395C1691.58,424.493 1815.47,419.569 1838.93,419.569C1876.59,419.569 1914.14,415.764 1951.34,410.487C1992.05,404.711 2020.72,415.548 2061.57,410.439C2088.03,407.129 2129.72,391.671 2156.05,396.125C2227.97,408.294 2326.5,396.663 2316.76,401.523C2305.71,407.036 2093.14,440.327 2078.12,440.204C2049.05,439.966 2021.26,448.142 1992.76,451.187C1989.96,451.486 1969.14,455.47 1972.46,462.096C1974.69,466.565 2036.01,466.609 2040.53,466.609C2121.41,466.609 2197.68,442.729 2277.33,434.845C2300.4,432.562 2324.5,436.67 2347.51,433.79C2364.14,431.708 2379.14,429.391 2396.32,429.391C2413.29,429.391 2430.93,427.867 2447.88,430.833C2525.89,444.482 2578.14,437.107 2567.59,442.293C2547.59,452.132 2421.64,463.988 2401.26,470.77C2392.72,473.612 2380.39,483.728 2371.54,483.728C2370.64,483.728 2373.37,483.91 2374.25,483.728C2379.34,482.68 2382.25,481.548 2387.58,481.548C2397.51,481.548 2407.49,480.258 2417.57,480.258C2437.14,480.258 2454.15,483.894 2471.35,493.521C2471.92,493.843 2470.14,495.857 2470.89,496.231C2477.94,499.755 2509.55,496.231 2517.33,496.231C2528.99,496.231 2542.58,499.366 2551.17,499.366C2555.13,499.366 2558.28,500.27 2562.39,500.27C2564.32,500.27 2570.11,500.27 2568.18,500.27C2564.46,500.27 2549.36,495.905 2548.56,497.494C2548.18,498.248 2550.19,497.921 2551,498.159C2554.63,499.221 2558.24,500.344 2561.9,501.273C2570.18,503.374 2578.84,505.305 2587.21,506.61C2606.07,509.551 2646.15,495.014 2667.79,489.274C2736.06,471.162 2807.51,485.213 2876.83,476.827C2887.8,475.5 2950.49,470.34 2958.77,474.478C2960.45,475.317 2880.14,494.958 2864.63,499.601C2854.92,502.509 2840.63,503.618 2840.61,506.002C2840.61,506.044 2855.49,505.887 2856.43,505.887C2866.41,505.887 2876.18,507.552 2886.22,507.557C2936.64,507.58 2915.91,505.621 3010.04,499.431C3107.86,492.999 3201.77,526.096 3206.49,526.096C3207.31,526.096 3001.31,564.323 2969.84,570.653C2949.43,574.759 2927.13,574.493 2906.38,577.08C2829.25,586.7 2821.46,565.736 2744.06,569.02C2728.72,569.671 2857.23,604.915 2830.12,607.541C2816.55,608.855 2592.57,584.314 2577.94,585.245C2530.5,588.265 2480.53,607.877 2433.05,610.589C2427.29,610.919 2399.32,608.034 2395.22,612.092C2395.17,612.139 2398.29,612.55 2403.05,613.143C2408.01,613.762 2412.84,614.091 2417.69,615.909C2437.63,623.373 2624.55,641.388 2624.54,642.214C2624.5,646.215 2547.1,645.381 2452.98,642.26C2400.47,640.518 2345.97,656.234 2293.66,656.019C2282.68,655.974 2271.71,656.019 2260.73,656.019L2206.68,656.019C2204.63,656.019 2220.11,656.143 2221.4,656.019C2229.38,655.257 2261.57,649.51 2268.09,642.865C2270.02,640.897 2262.58,642.865 2259.82,642.865C2252.8,642.865 2245.23,642.084 2238.25,642.865C2220.06,644.899 2202.01,647.386 2183.62,647.386C2151.31,647.386 2118.76,649.139 2086.29,649.139C2065.89,649.139 2045.75,645.119 2025.32,645.119C2025.17,645.119 2025.66,645.013 2025.77,645.119C2027.63,646.979 2034.55,645.825 2037.37,646.022C2042.51,646.382 2047.01,647.572 2052.27,647.572C2058.94,647.572 2065.62,647.464 2072.29,647.464C2077.57,647.464 2123.27,645.851 2123.21,639.291C2123.2,638.562 2105.38,632.916 2105.35,632.907C2087.63,627.469 2071.29,625.309 2052.84,623.257C2017.51,619.329 1982.66,610.978 1947.6,606.394C1929.41,604.017 1907.41,605.957 1890.19,600.197C1878.5,596.288 1756.71,609.627 1748.64,601.561C1748.04,600.963 1856.37,579.841 1870.88,576.212C1891.36,571.089 1911.19,563.305 1932.16,559.666C1959.54,554.915 1987.73,554.281 2015.35,552.969C2028.55,552.343 2041.23,552.254 2054.25,550.624C2054.4,550.606 2075.97,547.377 2075.18,546.581C2073.34,544.748 2060.77,546.193 2057.8,545.768C2041.92,543.498 2026.23,544.625 2010.29,541.434C1937.12,526.794 1855.77,536.198 1782.55,521.546C1748.83,514.799 1604.21,523.425 1607.71,523.173C1650.85,520.065 1765.54,488.577 1808.82,488.577C1828.78,488.577 1848.66,487.259 1868.51,485.686C1873.6,485.283 1879.3,481.928 1884.27,480.549C1887.55,479.637 1889.13,479.494 1892.28,479.494C1893.34,479.494 1896.5,479.494 1895.45,479.494C1804.26,479.494 1713.43,475.806 1622.25,475.806C1559.43,475.806 1495.72,479.146 1433.02,482.547C1414.09,483.573 1395.27,487.68 1376.29,488.848C1341.03,491.019 1304.89,496.166 1269.73,496.166C1266.94,496.166 1226.89,498.062 1225.92,499.019C1223.59,501.325 1232.43,499.922 1235.71,499.922C1244.51,499.922 1253.09,499.649 1261.84,500.741C1283.5,503.443 1306.91,504.868 1328.74,504.868C1336.53,504.868 1343.68,505.271 1351.36,506.037C1354.1,506.31 1361.57,504.55 1359.61,506.488C1357.83,508.248 1342.9,507.258 1340.04,507.774C1320.44,511.307 1300.89,511.25 1281.08,512.295C1235.03,514.723 1189.04,519.481 1143.13,522.257C1126.43,523.266 1110.73,529.067 1094.41,530.877C1082.95,532.148 1071.52,530.822 1060.14,533.149C1039.96,537.273 1198.23,548.994 1177.94,551.888C1175.47,552.24 1052.32,558.192 979.564,540.414C975.734,539.478 964.632,533.356 960.452,532.102C950.143,529.01 940.074,525.305 929.983,521.927C925.512,520.43 919.573,521.115 915.499,519.078C915.195,518.926 914.74,518.319 915.043,518.166C930.681,510.272 946.768,511.413 964.421,509.554C994.89,506.347 1027.26,506.194 1057.04,499.546C1064.01,497.991 1093.89,499.749 1096.79,496.795C1097.57,495.994 1094.54,496.795 1093.42,496.795L1069.85,496.795C1053.91,495.892 1037.72,496.353 1021.79,495.236C988.264,492.885 771.929,514.329 708.305,502.962C707.534,502.824 866.439,479.39 865.071,478.877C845.65,471.594 820.655,472.662 800.35,472.662C730.412,472.662 613.442,472.771 642.481,472.771C643.457,472.771 557.496,479.355 554.418,479.355C548.635,479.355 414.503,460.229 353.455,460.229C346.902,460.229 304.042,457.267 299.227,462.036C298.721,462.537 301.891,464.554 302.389,464.746C309.114,467.337 314.104,468.878 321.488,470.009C338.798,472.66 356.453,476.293 374.005,476.293C398.986,476.293 426.372,479.452 450.495,486.238C469.136,491.482 488.764,501.199 508.324,501.199C510.059,501.199 504.873,501.651 503.138,501.651C496.632,501.651 496.978,502.45 490.24,503.092C480.329,504.037 469.69,503.092 459.763,503.092C430.436,503.092 401.689,499.809 372.32,499.809C304.691,499.809 232.617,503.995 167.597,487.662C152.743,483.931 103.345,488.997 92.918,483.758C91.269,482.93 110.566,473.48 111.132,473.197C124.483,466.514 138.219,461.229 152.38,457.298C163.063,454.332 71.809,439.891 73.198,438.858C83.593,431.125 260.208,416.757 273.935,413.292C284.844,410.539 299.03,402.591 308.633,402.591Z" style="fill:rgb(197,196,174);"/>
    </g>
    <defs>
        <linearGradient id="_Linear1" x1="0" y1="0" x2="1" y2="0" gradientUnits="userSpaceOnUse" gradientTransform="matrix(7.39143,1287.8,-1292.4,7.36513,1821.24,233.958)"><stop offset="0" style="stop-color:rgb(206,205,174);stop-opacity:1"/><stop offset="1" style="stop-color:rgb(189,186,64);stop-opacity:1"/></linearGradient>
    </defs>
</svg>
